<svg width="18" height="18" viewBox="0 0 18 18" fill="none" xmlns="http://www.w3.org/2000/svg">
<g id="Frame">
<path id="Vector" d="M5.0625 2.25V3.9375M12.9375 2.25V3.9375M2.25 14.0625V5.625C2.25 5.17745 2.42779 4.74823 2.74426 4.43176C3.06072 4.11529 3.48995 3.9375 3.9375 3.9375H14.0625C14.5101 3.9375 14.9393 4.11529 15.2557 4.43176C15.5722 4.74823 15.75 5.17745 15.75 5.625V14.0625M2.25 14.0625C2.25 14.5101 2.42779 14.9393 2.74426 15.2557C3.06072 15.5722 3.48995 15.75 3.9375 15.75H14.0625C14.5101 15.75 14.9393 15.5722 15.2557 15.2557C15.5722 14.9393 15.75 14.5101 15.75 14.0625M2.25 14.0625V8.4375C2.25 7.98995 2.42779 7.56073 2.74426 7.24426C3.06072 6.92779 3.48995 6.75 3.9375 6.75H14.0625C14.5101 6.75 14.9393 6.92779 15.2557 7.24426C15.5722 7.56073 15.75 7.98995 15.75 8.4375V14.0625M9 9.5625H9.006V9.5685H9V9.5625ZM9 11.25H9.006V11.256H9V11.25ZM9 12.9375H9.006V12.9435H9V12.9375ZM7.3125 11.25H7.3185V11.256H7.3125V11.25ZM7.3125 12.9375H7.3185V12.9435H7.3125V12.9375ZM5.625 11.25H5.631V11.256H5.625V11.25ZM5.625 12.9375H5.631V12.9435H5.625V12.9375ZM10.6875 9.5625H10.6935V9.5685H10.6875V9.5625ZM10.6875 11.25H10.6935V11.256H10.6875V11.25ZM10.6875 12.9375H10.6935V12.9435H10.6875V12.9375ZM12.375 9.5625H12.381V9.5685H12.375V9.5625ZM12.375 11.25H12.381V11.256H12.375V11.25Z" stroke="#199BFC" stroke-width="1.5" stroke-linecap="round" stroke-linejoin="round"/>
</g>
</svg>
