<svg width="237" height="37" viewBox="0 0 237 37" fill="none" xmlns="http://www.w3.org/2000/svg">
<g clip-path="url(#clip0_78_464)">
<path d="M11.343 2.80623V5.28111L8.17164 5.82676V22.0402C8.17164 24.1839 8.78124 25.8143 10.0005 26.9316C11.2197 28.0359 12.8281 28.588 14.8256 28.588C16.9268 28.588 18.6195 28.0359 19.9036 26.9316C21.1877 25.8273 21.8298 24.1968 21.8298 22.0402V5.82676L18.6584 5.28111V2.80623H25.6626H28.8339V5.28111L25.6626 5.82676V22.0402C25.6626 25.1193 24.6573 27.4837 22.6469 29.1336C20.6494 30.7706 18.0423 31.5891 14.8256 31.5891C11.6997 31.5891 9.1704 30.7706 7.23775 29.1336C5.3051 27.4837 4.3388 25.1193 4.3388 22.0402V5.82676L1.16748 5.28111V2.80623H4.3388H11.343ZM31.1687 28.7244L34.34 28.1787V13.115L31.1687 12.5694V10.0945H37.7642L38.0366 13.232C38.737 12.1147 39.6125 11.2507 40.6632 10.6402C41.7267 10.0166 42.9332 9.70477 44.2822 9.70477C46.5517 9.70477 48.3095 10.3738 49.5547 11.712C50.7999 13.0371 51.4225 15.0898 51.4225 17.87V28.1787L54.5936 28.7244V31.1798H44.4183V28.7244L47.5894 28.1787V17.9479C47.5894 16.0901 47.22 14.7714 46.4803 13.992C45.754 13.2125 44.6387 12.8227 43.1341 12.8227C42.0317 12.8227 41.0523 13.0891 40.1962 13.6217C39.3531 14.1544 38.6786 14.8819 38.1728 15.8043V28.1787L41.3441 28.7244V31.1798H31.1687V28.7244ZM57.3757 28.7244L60.5472 28.1787V13.115L57.3757 12.5694V10.0945H64.3799V28.1787L67.5513 28.7244V31.1798H57.3757V28.7244ZM64.3799 4.69651H60.5472V0.779541H64.3799V4.69651ZM93.3304 28.0228C92.4098 28.9323 91.0671 29.7572 89.3031 30.4978C87.539 31.2253 85.3081 31.5891 82.6102 31.5891C78.7837 31.5891 75.6708 30.3094 73.2713 27.75C70.8718 25.1777 69.6719 21.8389 69.6719 17.7335V16.7592C69.6719 12.511 70.8523 9.05519 73.2132 6.3919C75.5865 3.72863 78.68 2.39699 82.4936 2.39699C84.7116 2.39699 86.7351 2.75426 88.5638 3.4688C90.4054 4.17032 91.9362 5.12521 93.1556 6.33345V12.0433H88.9527L88.1554 8.24319C87.6366 7.80148 86.9488 7.45072 86.093 7.19089C85.25 6.91805 84.2771 6.78165 83.1747 6.78165C80.6972 6.78165 78.7709 7.69754 77.3962 9.52938C76.0211 11.3612 75.3337 13.7581 75.3337 16.7202V17.7335C75.3337 20.6177 76.0082 22.9237 77.3572 24.6516C78.7061 26.3665 80.6515 27.2239 83.1942 27.2239C84.3356 27.2239 85.2562 27.1264 85.9568 26.9316C86.6699 26.7367 87.2277 26.5093 87.6299 26.2495V21.4361L83.5831 21.1243V17.1294H93.3304V28.0228ZM106.405 31.5891C103.37 31.5891 100.944 30.6147 99.1284 28.6659C97.3125 26.7172 96.4047 24.2423 96.4047 21.2413V20.4618C96.4047 17.3308 97.2606 14.752 98.9727 12.7253C100.698 10.6986 103.007 9.69176 105.899 9.70477C108.74 9.70477 110.945 10.5622 112.514 12.2771C114.083 13.992 114.868 16.311 114.868 19.2341V22.3326H102.3L102.261 22.4495C102.365 23.8396 102.825 24.9829 103.642 25.8793C104.472 26.7757 105.594 27.2239 107.008 27.2239C108.266 27.2239 109.31 27.1005 110.14 26.8536C110.97 26.5938 111.879 26.1911 112.864 25.6454L114.401 29.1531C113.532 29.8417 112.404 30.4198 111.016 30.8875C109.641 31.3552 108.104 31.5891 106.405 31.5891ZM105.899 14.0894C104.848 14.0894 104.018 14.4922 103.409 15.2976C102.799 16.1031 102.423 17.1619 102.28 18.4741L102.338 18.5715H109.304V18.0648C109.304 16.8566 109.018 15.8952 108.448 15.1807C107.89 14.4532 107.041 14.0894 105.899 14.0894Z" fill="white"/>
<path d="M145.72 9.901C146.835 9.901 147.81 10.0606 148.642 10.3799C149.474 10.6992 150.289 11.187 151.086 11.8433L149.306 13.9186C148.226 13.0495 147.092 12.6149 145.906 12.6149C144.542 12.6149 143.444 13.1648 142.612 14.2645C141.797 15.3642 141.39 17.0937 141.39 19.4528C141.39 21.7588 141.797 23.4704 142.612 24.5879C143.427 25.7054 144.524 26.2641 145.906 26.2641C146.632 26.2641 147.278 26.14 147.845 25.8917C148.411 25.6256 149.014 25.2531 149.651 24.7742L151.298 26.8495C150.679 27.4881 149.89 28.0202 148.934 28.4459C147.996 28.8716 146.942 29.0845 145.773 29.0845C144.179 29.0845 142.771 28.712 141.549 27.967C140.327 27.222 139.38 26.1311 138.707 24.6944C138.034 23.2398 137.698 21.4927 137.698 19.4528C137.698 17.4485 138.043 15.7279 138.733 14.2911C139.442 12.8543 140.398 11.7635 141.602 11.0185C142.824 10.2735 144.197 9.901 145.72 9.901ZM158.918 14.2113C160.99 14.2113 162.601 14.8765 163.752 16.2068C164.921 17.5194 165.505 19.3286 165.505 21.6346C165.505 23.1068 165.24 24.4105 164.708 25.5458C164.177 26.6632 163.416 27.5324 162.424 28.1532C161.432 28.774 160.254 29.0845 158.891 29.0845C156.819 29.0845 155.199 28.4281 154.03 27.1156C152.861 25.7852 152.277 23.9582 152.277 21.6346C152.277 20.1623 152.542 18.8675 153.073 17.75C153.605 16.6325 154.366 15.7633 155.358 15.1425C156.367 14.5217 157.554 14.2113 158.918 14.2113ZM158.918 16.7921C156.881 16.7921 155.863 18.4063 155.863 21.6346C155.863 23.3019 156.11 24.5347 156.606 25.3329C157.12 26.1134 157.882 26.5036 158.891 26.5036C159.9 26.5036 160.653 26.1045 161.149 25.3063C161.662 24.5081 161.919 23.2842 161.919 21.6346C161.919 19.985 161.662 18.7699 161.149 17.9895C160.653 17.1912 159.909 16.7921 158.918 16.7921ZM176.184 14.2113C177.441 14.2113 178.415 14.5926 179.106 15.3554C179.814 16.1004 180.168 17.1469 180.168 18.495V28.6854H176.768V19.0271C176.768 18.1934 176.617 17.6081 176.316 17.2711C176.033 16.934 175.608 16.7655 175.041 16.7655C174.457 16.7655 173.926 16.9518 173.448 17.3243C172.987 17.679 172.536 18.2023 172.093 18.8941V28.6854H168.693V14.6104H171.641L171.907 16.4463C173.058 14.9563 174.484 14.2113 176.184 14.2113ZM191.619 14.2113C192.876 14.2113 193.85 14.5926 194.541 15.3554C195.249 16.1004 195.604 17.1469 195.604 18.495V28.6854H192.203V19.0271C192.203 18.1934 192.053 17.6081 191.752 17.2711C191.468 16.934 191.043 16.7655 190.477 16.7655C189.892 16.7655 189.361 16.9518 188.883 17.3243C188.422 17.679 187.971 18.2023 187.528 18.8941V28.6854H184.128V14.6104H187.077L187.342 16.4463C188.493 14.9563 189.919 14.2113 191.619 14.2113ZM211.092 21.3153C211.092 21.4927 211.065 21.9539 211.012 22.6988H202.193C202.299 24.0646 202.653 25.0402 203.255 25.6256C203.857 26.2109 204.654 26.5036 205.646 26.5036C206.266 26.5036 206.85 26.406 207.399 26.2109C207.948 25.9981 208.533 25.6788 209.152 25.2531L210.56 27.1954C209.002 28.4548 207.266 29.0845 205.354 29.0845C203.211 29.0845 201.555 28.4281 200.386 27.1156C199.235 25.803 198.66 24.0114 198.66 21.741C198.66 20.3042 198.907 19.0183 199.403 17.883C199.899 16.7301 200.617 15.8343 201.555 15.1957C202.494 14.5394 203.609 14.2113 204.902 14.2113C206.868 14.2113 208.391 14.841 209.471 16.1004C210.552 17.342 211.092 19.0803 211.092 21.3153ZM207.718 20.3308C207.718 17.8653 206.806 16.6325 204.982 16.6325C204.15 16.6325 203.494 16.9429 203.016 17.5637C202.556 18.1668 202.281 19.1424 202.193 20.4905H207.718V20.3308ZM219.8 14.2113C220.721 14.2113 221.544 14.3443 222.27 14.6104C223.014 14.8765 223.714 15.2933 224.369 15.8609L222.855 17.9096C222.377 17.5549 221.916 17.2977 221.473 17.138C221.031 16.9784 220.544 16.8986 220.012 16.8986C217.905 16.8986 216.851 18.5038 216.851 21.7144C216.851 23.3463 217.126 24.5259 217.675 25.2531C218.224 25.9626 219.003 26.3174 220.012 26.3174C220.508 26.3174 220.96 26.2375 221.367 26.0779C221.792 25.9183 222.288 25.661 222.855 25.3063L224.369 27.4615C223.041 28.5435 221.527 29.0845 219.827 29.0845C218.48 29.0845 217.312 28.7918 216.32 28.2064C215.329 27.6033 214.567 26.7519 214.036 25.6522C213.504 24.5525 213.239 23.2576 213.239 21.7676C213.239 20.2776 213.504 18.965 214.036 17.8298C214.567 16.6769 215.329 15.7899 216.32 15.1691C217.312 14.5306 218.472 14.2113 219.8 14.2113ZM234.876 28.0202C234.38 28.3749 233.822 28.641 233.203 28.8184C232.6 28.9958 231.981 29.0845 231.343 29.0845C229.962 29.0667 228.908 28.6765 228.182 27.9138C227.474 27.1333 227.12 25.9892 227.12 24.4815V17.0582H224.915V14.6104H227.12V11.4974L230.52 11.0983V14.6104H233.787L233.442 17.0582H230.52V24.4017C230.52 25.0934 230.635 25.5901 230.865 25.8917C231.113 26.1932 231.493 26.344 232.007 26.344C232.521 26.344 233.079 26.1755 233.681 25.8384L234.876 28.0202Z" fill="white"/>
<path d="M128.098 37.0007V0.213013" stroke="white" stroke-width="2"/>
</g>
<defs>
<clipPath id="clip0_78_464">
<rect width="237" height="37" fill="white"/>
</clipPath>
</defs>
</svg>
