<svg width="19" height="19" viewBox="0 0 19 19" fill="none" xmlns="http://www.w3.org/2000/svg">
<g clip-path="url(#clip0_245_959)">
<path d="M13.4582 16.625V15.0417C13.4582 14.2018 13.1245 13.3964 12.5307 12.8025C11.9368 12.2086 11.1314 11.875 10.2915 11.875H3.95817C3.11832 11.875 2.31286 12.2086 1.719 12.8025C1.12513 13.3964 0.791504 14.2018 0.791504 15.0417V16.625" stroke="#199BFC" stroke-width="2" stroke-linecap="round" stroke-linejoin="round"/>
<path d="M7.12516 8.70833C8.87406 8.70833 10.2918 7.29057 10.2918 5.54167C10.2918 3.79276 8.87406 2.375 7.12516 2.375C5.37626 2.375 3.9585 3.79276 3.9585 5.54167C3.9585 7.29057 5.37626 8.70833 7.12516 8.70833Z" stroke="#199BFC" stroke-width="2" stroke-linecap="round" stroke-linejoin="round"/>
<path d="M18.2085 16.6251V15.0418C18.208 14.3401 17.9744 13.6586 17.5446 13.104C17.1147 12.5495 16.5128 12.1534 15.8335 11.978" stroke="#199BFC" stroke-width="2" stroke-linecap="round" stroke-linejoin="round"/>
<path d="M12.6665 2.47803C13.3477 2.65243 13.9514 3.04858 14.3826 3.60402C14.8137 4.15946 15.0477 4.8426 15.0477 5.54574C15.0477 6.24887 14.8137 6.93201 14.3826 7.48745C13.9514 8.04289 13.3477 8.43904 12.6665 8.61344" stroke="#199BFC" stroke-width="2" stroke-linecap="round" stroke-linejoin="round"/>
</g>
<defs>
<clipPath id="clip0_245_959">
<rect width="19" height="19" fill="white"/>
</clipPath>
</defs>
</svg>
